<svg width="128" height="128" viewBox="0 0 128 128" fill="none" xmlns="http://www.w3.org/2000/svg">
<path d="M35.0386 49.671V59.7141L43.5098 53.5337L35.0386 49.671Z" fill="#0089DB"/>
<path fill-rule="evenodd" clip-rule="evenodd" d="M63.8374 0.000888773C54.3667 -0.246777 -0.706841 51.3393 0.00687498 63.8355C0.720591 76.3317 53.8609 128.246 64.1664 127.999C74.4719 127.752 127.517 78.193 127.997 64.1645C128.477 50.136 73.308 0.248555 63.8374 0.000888773ZM60.8372 59.3278C60.0671 62.4179 58.9119 62.8043 56.9866 62.4181C55.0614 62.032 50.8258 58.1691 50.8258 58.1691L39.2742 69.371V79.4141C39.2742 85.2855 41.0711 83.6631 41.9695 82.118L87.4058 36.5377C97.2631 26.6492 99.2141 40.143 98.9575 48.126V74.0063C98.9575 91.0023 90.743 89.3285 86.6358 86.367L79.3198 79.4141C79.3198 79.4141 70.0785 70.9161 70.0785 69.371C70.0785 67.8258 72.0037 67.0533 72.0037 67.0533C73.929 67.0533 76.0853 68.4439 83.1703 75.5514C90.2553 82.6588 91.5131 78.5128 91.2564 75.5514V57.3965C91.2564 45.9628 86.6358 47.9972 84.3255 50.4436C71.362 65.122 43.8948 94.4788 37.734 94.4788C31.5731 94.4788 29.7762 89.0709 29.6478 86.367V48.126C29.6478 41.0186 33.7551 41.3018 35.8087 42.3319C35.8087 42.3319 61.6073 56.2377 60.8372 59.3278Z" fill="#0089DB"/>
</svg>
